<svg width="33" height="32" viewBox="0 0 33 32" fill="none" xmlns="http://www.w3.org/2000/svg">
<g clip-path="url(#clip0_2_7250)">
<path d="M4.08008 16C4.08008 17.5759 4.39047 19.1363 4.99352 20.5922C5.59658 22.0481 6.48049 23.371 7.5948 24.4853C8.7091 25.5996 10.032 26.4835 11.4879 27.0866C12.9438 27.6896 14.5042 28 16.0801 28C17.6559 28 19.2164 27.6896 20.6723 27.0866C22.1282 26.4835 23.4511 25.5996 24.5654 24.4853C25.6797 23.371 26.5636 22.0481 27.1666 20.5922C27.7697 19.1363 28.0801 17.5759 28.0801 16C28.0801 12.8174 26.8158 9.76516 24.5654 7.51472C22.3149 5.26428 19.2627 4 16.0801 4C12.8975 4 9.84523 5.26428 7.5948 7.51472C5.34436 9.76516 4.08008 12.8174 4.08008 16Z" stroke="#093C55" stroke-width="2" stroke-linecap="round" stroke-linejoin="round"/>
<path d="M16.0801 9.3335V16.0002L20.0801 20.0002" stroke="#093C55" stroke-width="2" stroke-linecap="round" stroke-linejoin="round"/>
</g>
<defs>
<clipPath id="clip0_2_7250">
<rect width="32" height="32" fill="white" transform="translate(0.0800781)"/>
</clipPath>
</defs>
</svg>
