<svg width="34" height="34" viewBox="0 0 34 34" fill="none" xmlns="http://www.w3.org/2000/svg">
<g clip-path="url(#clip0_2_6579)">
<path d="M21.25 5.6665L29.75 8.49984V15.5832H25.5V26.9165C25.5 27.2922 25.3507 27.6526 25.0851 27.9182C24.8194 28.1839 24.4591 28.3332 24.0833 28.3332H9.91667C9.54094 28.3332 9.18061 28.1839 8.91493 27.9182C8.64926 27.6526 8.5 27.2922 8.5 26.9165V15.5832H4.25V8.49984L12.75 5.6665C12.75 6.79367 13.1978 7.87468 13.9948 8.67171C14.7918 9.46874 15.8728 9.9165 17 9.9165C18.1272 9.9165 19.2082 9.46874 20.0052 8.67171C20.8022 7.87468 21.25 6.79367 21.25 5.6665Z" stroke="#F3F5F6" stroke-width="2" stroke-linecap="round" stroke-linejoin="round"/>
<path d="M14.875 15.5835H18.4167L16.2917 22.6668" stroke="#F47B3D" stroke-width="2" stroke-linecap="round" stroke-linejoin="round"/>
</g>
<defs>
<clipPath id="clip0_2_6579">
<rect width="34" height="34" fill="white"/>
</clipPath>
</defs>
</svg>
