<svg width="34" height="34" viewBox="0 0 34 34" fill="none" xmlns="http://www.w3.org/2000/svg">
<g clip-path="url(#clip0_2_6599)">
<path d="M17 18.4165C18.1272 18.4165 19.2082 17.9687 20.0052 17.1717C20.8022 16.3747 21.25 15.2937 21.25 14.1665C21.25 13.0393 20.8022 11.9583 20.0052 11.1613C19.2082 10.3643 18.1272 9.9165 17 9.9165C15.8728 9.9165 14.7918 10.3643 13.9948 11.1613C13.1978 11.9583 12.75 13.0393 12.75 14.1665C12.75 15.2937 13.1978 16.3747 13.9948 17.1717C14.7918 17.9687 15.8728 18.4165 17 18.4165Z" stroke="#FAFBFC" stroke-width="2" stroke-linecap="round" stroke-linejoin="round"/>
<path d="M8.78516 26.5538C9.15942 25.4222 9.88099 24.4374 10.8472 23.7395C11.8135 23.0416 12.9751 22.6661 14.1671 22.6665H19.8337C21.0249 22.6661 22.1859 23.0411 23.1518 23.7382C24.1177 24.4352 24.8393 25.419 25.2142 26.5496" stroke="#FAFBFC" stroke-width="2" stroke-linecap="round" stroke-linejoin="round"/>
<path d="M28.1563 8.88257C29.1479 9.4464 29.7571 10.5018 29.75 11.6422V21.9612C29.75 23.1073 29.1224 24.1642 28.1095 24.7209L18.547 30.7701C18.0729 31.0304 17.5408 31.1668 17 31.1668C16.4592 31.1668 15.9271 31.0304 15.453 30.7701L5.8905 24.7209C5.3949 24.4501 4.98118 24.0511 4.69258 23.5656C4.40399 23.0801 4.25114 22.526 4.25 21.9612V11.6408C4.25 10.4947 4.87758 9.43932 5.8905 8.88257L15.453 3.24424C15.9411 2.97512 16.4894 2.83398 17.0468 2.83398C17.6041 2.83398 18.1524 2.97512 18.6405 3.24424L28.203 8.88257H28.1563Z" stroke="#F47B3D" stroke-width="2" stroke-linecap="round" stroke-linejoin="round"/>
</g>
<defs>
<clipPath id="clip0_2_6599">
<rect width="34" height="34" fill="white"/>
</clipPath>
</defs>
</svg>
