<svg width="31" height="30" viewBox="0 0 31 30" fill="none" xmlns="http://www.w3.org/2000/svg">
<g id="Group 157">
<path id="Vector" d="M0.853516 14.8477C0.853516 6.75866 7.411 0.201172 15.5 0.201172C23.5891 0.201172 30.1465 6.75866 30.1465 14.8477C30.1465 22.9367 23.5891 29.4942 15.5 29.4942C7.411 29.4942 0.853516 22.9367 0.853516 14.8477Z" fill="white"/>
<path id="Vector_2" d="M15.5016 10.651C13.0956 10.651 11.1548 12.5923 11.1548 14.9988C11.1548 17.4053 13.0956 19.3466 15.5016 19.3466C17.9076 19.3466 19.8484 17.4053 19.8484 14.9988C19.8484 12.5923 17.9076 10.651 15.5016 10.651ZM15.5016 17.6811C14.0263 17.6811 12.8199 16.4781 12.8199 14.9988C12.8199 13.5194 14.0226 12.3165 15.5016 12.3165C16.9806 12.3165 18.1833 13.5194 18.1833 14.9988C18.1833 16.4781 16.977 17.6811 15.5016 17.6811ZM19.9352 11.6454C20.532 11.6454 21.0162 11.1652 21.0162 10.5642C21.0162 9.96716 20.5322 9.48304 19.9352 9.48304C19.3383 9.48304 18.8543 9.96716 18.8543 10.5642C18.8543 11.161 19.3343 11.6454 19.9352 11.6454ZM23.8371 11.5682C23.7735 10.2261 23.466 9.02204 22.4695 8.02912C21.4769 7.03629 20.2731 6.72881 18.9316 6.6615C17.5565 6.58347 13.4433 6.58347 12.0681 6.66149C10.7299 6.7251 9.52633 7.03265 8.53 8.02541C7.5334 9.01845 7.22975 10.2226 7.16246 11.5644C7.08445 12.9397 7.08445 17.0539 7.16245 18.4294C7.22604 19.7715 7.53351 20.9755 8.53 21.9685C9.52631 22.9612 10.7262 23.2688 12.0679 23.3361C13.4429 23.4141 17.5562 23.4141 18.9315 23.3361C20.2732 23.2725 21.4771 22.9649 22.4698 21.9682C23.4624 20.9753 23.7698 19.7714 23.8371 18.4295C23.9151 17.0542 23.9151 12.9437 23.8371 11.5682ZM21.8965 19.8645C21.6163 20.5688 21.0743 21.1111 20.3662 21.3952C19.8357 21.6056 18.9285 21.6893 17.9905 21.7185C17.3224 21.7394 16.6485 21.7325 16.0965 21.7269C15.876 21.7247 15.675 21.7227 15.5016 21.7227C15.3316 21.7227 15.1349 21.7245 14.9193 21.7266C14.3647 21.7319 13.6849 21.7385 13.0114 21.7171C12.0729 21.6874 11.1657 21.6037 10.6369 21.3951C9.93285 21.1149 9.39069 20.5727 9.10668 19.8644C8.89631 19.3337 8.81265 18.4264 8.78341 17.4882C8.76258 16.82 8.76941 16.1459 8.77501 15.5938C8.77724 15.3733 8.77928 15.1722 8.77928 14.9988C8.77928 14.8287 8.77739 14.632 8.77532 14.4164C8.77 13.8616 8.76348 13.1816 8.7848 12.508C8.8145 11.5693 8.89817 10.6618 9.10676 10.1329C9.38699 9.42872 9.92897 8.88647 10.6371 8.60241C11.1676 8.39199 12.0747 8.30831 13.0128 8.27906C13.6808 8.25823 14.3548 8.26506 14.9068 8.27066C15.1272 8.27289 15.3282 8.27493 15.5016 8.27493C15.6716 8.27493 15.8683 8.27304 16.0839 8.27097C16.6385 8.26565 17.3184 8.25913 17.9918 8.28045C18.9304 8.31016 19.8376 8.39384 20.3663 8.60247C21.0703 8.88273 21.6125 9.42478 21.8965 10.133C22.1069 10.6636 22.1906 11.571 22.2198 12.5094C22.2407 13.1776 22.2338 13.8517 22.2282 14.4038C22.226 14.6243 22.224 14.8253 22.224 14.9988C22.224 15.1722 22.226 15.3733 22.2282 15.5938C22.2338 16.1463 22.2407 16.821 22.2198 17.4896C22.1906 18.4285 22.1069 19.3358 21.8965 19.8645Z" fill="#093C55" stroke="#093C55" stroke-width="0.174913"/>
</g>
</svg>
