<?xml version="1.0" encoding="UTF-8"?>
<svg version="1.1" xmlns="http://www.w3.org/2000/svg" width="34" height="35">
<path d="M0 0 C11.22 0 22.44 0 34 0 C34 11.55 34 23.1 34 35 C22.78 35 11.56 35 0 35 C0 23.45 0 11.9 0 0 Z " fill="#F4F6F7" transform="translate(0,0)"/>
<path d="M0 0 C1.1446875 0.00386719 2.289375 0.00773438 3.46875 0.01171875 C6.5 0.3125 6.5 0.3125 9.5 2.3125 C9.77668225 4.90676798 9.87295242 7.22513646 9.8125 9.8125 C9.81733398 10.84697266 9.81733398 10.84697266 9.82226562 11.90234375 C9.76712592 17.04537408 9.76712592 17.04537408 7.5 19.3125 C4.34765625 19.61328125 4.34765625 19.61328125 0.5625 19.625 C-0.68402344 19.64175781 -1.93054688 19.65851562 -3.21484375 19.67578125 C-6.5 19.3125 -6.5 19.3125 -8.41796875 18.19921875 C-10.03070627 15.38711687 -9.89673227 13.02887545 -9.875 9.8125 C-9.88660156 8.09546875 -9.88660156 8.09546875 -9.8984375 6.34375 C-9.5 3.3125 -9.5 3.3125 -8.3828125 1.42578125 C-5.57507185 -0.23439735 -3.23257802 -0.04732378 0 0 Z " fill="#F0F3F4" transform="translate(16.5,7.6875)"/>
<path d="M0 0 C11.22 0 22.44 0 34 0 C34 11.55 34 23.1 34 35 C22.78 35 11.56 35 0 35 C0 30.71 0 26.42 0 22 C0.99 23.32 1.98 24.64 3 26 C6.47934914 29.74699138 9.19097948 32.60136012 14.3671875 33.3359375 C20.10537931 33.42531743 23.56519321 33.01244424 28 29 C31.62833663 25.18069828 32.31000458 22.11720994 32.5 17 C32.31056958 11.90432172 31.67025187 8.76683745 28 5 C22.85925372 1.23847833 17.1369564 1.16895382 11 2 C6.94901976 4.02549012 4.44307272 6.21323729 2 10 C1.34 10.99 0.68 11.98 0 13 C0 8.71 0 4.42 0 0 Z " fill="#14445C" transform="translate(0,0)"/>
<path d="M0 0 C1.1446875 0.00386719 2.289375 0.00773438 3.46875 0.01171875 C6.5 0.3125 6.5 0.3125 9.5 2.3125 C9.77668225 4.90676798 9.87295242 7.22513646 9.8125 9.8125 C9.81733398 10.84697266 9.81733398 10.84697266 9.82226562 11.90234375 C9.76712592 17.04537408 9.76712592 17.04537408 7.5 19.3125 C4.34765625 19.61328125 4.34765625 19.61328125 0.5625 19.625 C-0.68402344 19.64175781 -1.93054688 19.65851562 -3.21484375 19.67578125 C-6.5 19.3125 -6.5 19.3125 -8.41796875 18.19921875 C-10.03070627 15.38711687 -9.89673227 13.02887545 -9.875 9.8125 C-9.88660156 8.09546875 -9.88660156 8.09546875 -9.8984375 6.34375 C-9.5 3.3125 -9.5 3.3125 -8.3828125 1.42578125 C-5.57507185 -0.23439735 -3.23257802 -0.04732378 0 0 Z M-7.5 4.3125 C-7.81949731 6.91166083 -7.81949731 6.91166083 -7.75 9.8125 C-7.75515625 10.7921875 -7.7603125 11.771875 -7.765625 12.78125 C-7.75075045 15.48138152 -7.75075045 15.48138152 -5.5 17.3125 C-2.63617279 17.59412436 -2.63617279 17.59412436 0.5625 17.5 C1.64660156 17.49355469 2.73070312 17.48710937 3.84765625 17.48046875 C6.42202315 17.61081107 6.42202315 17.61081107 7.5 16.3125 C7.57226502 14.45962498 7.5838122 12.60416122 7.5625 10.75 C7.55347656 9.73808594 7.54445313 8.72617187 7.53515625 7.68359375 C7.52355469 6.90113281 7.51195312 6.11867188 7.5 5.3125 C6.84 5.3125 6.18 5.3125 5.5 5.3125 C5.5 4.3225 5.5 3.3325 5.5 2.3125 C3.70866022 2.25858007 1.91686101 2.21974429 0.125 2.1875 C-0.87273438 2.16429687 -1.87046875 2.14109375 -2.8984375 2.1171875 C-5.66262173 2.04033152 -5.66262173 2.04033152 -7.5 4.3125 Z " fill="#18485F" transform="translate(16.5,7.6875)"/>
<path d="M0 0 C3 0.25 3 0.25 5 2.25 C4.43181818 7.81818182 4.43181818 7.81818182 3 9.25 C0.0625 9.4375 0.0625 9.4375 -3 9.25 C-5 7.25 -5 7.25 -5.25 4.75 C-4.86630891 0.91308908 -3.76694968 0.31391247 0 0 Z " fill="#255268" transform="translate(17,12.75)"/>
<path d="M0 0 C4.62 0 9.24 0 14 0 C12.01902074 1.32065284 10.01894894 2.61315691 8 3.875 C5.27310255 5.80655236 3.78172704 7.23832309 2 10 C1.34 10.99 0.68 11.98 0 13 C0 8.71 0 4.42 0 0 Z " fill="#0F4058" transform="translate(0,0)"/>
<path d="M0 0 C0.99773438 0.02320313 1.99546875 0.04640625 3.0234375 0.0703125 C4.52777344 0.09738281 4.52777344 0.09738281 6.0625 0.125 C6.83335938 0.14820313 7.60421875 0.17140625 8.3984375 0.1953125 C7.7384375 1.5153125 7.0784375 2.8353125 6.3984375 4.1953125 C4.4184375 4.1953125 2.4384375 4.1953125 0.3984375 4.1953125 C0.1303125 4.9378125 -0.1378125 5.6803125 -0.4140625 6.4453125 C-1.54831028 9.07199156 -2.85394263 10.95452867 -4.6015625 13.1953125 C-4.65548243 11.40397272 -4.69431821 9.61217351 -4.7265625 7.8203125 C-4.74976563 6.82257812 -4.77296875 5.82484375 -4.796875 4.796875 C-4.52386888 1.16043347 -3.63644153 0.27300612 0 0 Z " fill="#E1E7EA" transform="translate(13.6015625,9.8046875)"/>
<path d="M0 0 C1.06671952 3.20015856 0.94845472 4.88544294 0.5625 8.1875 C0.46066406 9.08855469 0.35882813 9.98960938 0.25390625 10.91796875 C0.17011719 11.60503906 0.08632813 12.29210938 0 13 C-0.33 13 -0.66 13 -1 13 C-1 10.03 -1 7.06 -1 4 C-1.99 4.33 -2.98 4.66 -4 5 C-4 4.01 -4 3.02 -4 2 C-6.31 1.67 -8.62 1.34 -11 1 C-11 0.67 -11 0.34 -11 0 C-6.98195309 -0.84098656 -3.98196457 -1.05404945 0 0 Z " fill="#3D6579" transform="translate(25,9)"/>
<path d="M0 0 C1.65 0.33 3.3 0.66 5 1 C4.67 2.32 4.34 3.64 4 5 C2.35 4.67 0.7 4.34 -1 4 C-0.67 2.68 -0.34 1.36 0 0 Z " fill="#F0F3F4" transform="translate(15,15)"/>
</svg>
