<svg width="34" height="34" viewBox="0 0 34 34" fill="none" xmlns="http://www.w3.org/2000/svg">
<g id="Group 64306">
<path id="Vector" d="M0.494141 17.08C0.494141 7.96739 7.88145 0.580078 16.9941 0.580078C26.1068 0.580078 33.4941 7.96739 33.4941 17.08C33.4941 26.1927 26.1068 33.58 16.9941 33.58C7.88145 33.58 0.494141 26.1927 0.494141 17.08Z" fill="white"/>
<path id="Vector_2" d="M12.5521 24.625H9.0269V13.5256H12.5521V24.625ZM10.7876 12.0115C9.6606 12.0115 8.74609 11.0986 8.74609 9.99648C8.74609 9.46698 8.96118 8.95917 9.34404 8.58476C9.7269 8.21034 10.2462 8 10.7876 8C11.3291 8 11.8483 8.21034 12.2312 8.58476C12.614 8.95917 12.8291 9.46698 12.8291 9.99648C12.8291 11.0986 11.9146 12.0115 10.7876 12.0115ZM25.7423 24.625H22.2247V19.2219C22.2247 17.9342 22.1981 16.2828 20.3919 16.2828C18.559 16.2828 18.2782 17.6818 18.2782 19.1291V24.625H14.7568V13.5256H18.1378V15.0396H18.1872C18.6577 14.1676 19.8075 13.2473 21.5227 13.2473C25.0896 13.2473 25.7461 15.5443 25.7461 18.5279V24.625H25.7423Z" fill="#093C55"/>
</g>
</svg>
