<svg width="19" height="18" viewBox="0 0 19 18" fill="none" xmlns="http://www.w3.org/2000/svg">
<path d="M9.72691 0C14.6956 0 18.7234 4.02771 18.7234 8.99644C18.7252 11.3584 17.7981 13.6264 16.1422 15.3107C14.4863 16.995 12.2344 17.9605 9.87267 17.9988C7.51099 18.0371 5.22899 17.145 3.51936 15.5153C1.80973 13.8855 0.809627 11.6487 0.734967 9.28793L0.730469 8.99644L0.734067 8.74454C0.867215 3.89276 4.84184 0 9.72691 0ZM9.73591 11.6954L9.62165 11.7017C9.40299 11.7277 9.20147 11.833 9.05525 11.9976C8.90903 12.1623 8.82827 12.3748 8.82827 12.595C8.82827 12.8152 8.90903 13.0278 9.05525 13.1924C9.20147 13.3571 9.40299 13.4624 9.62165 13.4884L9.72691 13.4947L9.84116 13.4884C10.0598 13.4624 10.2613 13.3571 10.4076 13.1924C10.5538 13.0278 10.6345 12.8152 10.6345 12.595C10.6345 12.3748 10.5538 12.1623 10.4076 11.9976C10.2613 11.833 10.0598 11.7277 9.84116 11.7017L9.73591 11.6954ZM9.72691 4.49822C9.50656 4.49825 9.29388 4.57915 9.12921 4.72557C8.96455 4.872 8.85935 5.07377 8.83356 5.29261L8.82727 5.39786V8.99644L8.83356 9.1017C8.85957 9.32036 8.96487 9.52188 9.12951 9.6681C9.29416 9.81432 9.50671 9.89508 9.72691 9.89508C9.94711 9.89508 10.1597 9.81432 10.3243 9.6681C10.4889 9.52188 10.5942 9.32036 10.6203 9.1017L10.6266 8.99644V5.39786L10.6203 5.29261C10.5945 5.07377 10.4893 4.872 10.3246 4.72557C10.1599 4.57915 9.94726 4.49825 9.72691 4.49822Z" fill="#CB0404"/>
</svg>
