<svg width="128" height="35" viewBox="0 0 128 35" fill="none" xmlns="http://www.w3.org/2000/svg">
<g id="Group 195">
<path id="Vector" d="M32.9999 17.3888C32.9999 8.21967 25.6136 0.78833 16.5 0.78833C7.38634 0.78833 0 8.21967 0 17.3888C0 25.6761 6.0328 32.5432 13.9218 33.7882V22.1874H9.73236V17.3888H13.9218V13.7315C13.9218 9.57163 16.384 7.27289 20.1544 7.27289C21.9591 7.27289 23.8476 7.59711 23.8476 7.59711V11.6824H21.7658C19.7161 11.6824 19.0781 12.9631 19.0781 14.2762V17.3888H23.6542L22.9227 22.1874H19.0781V33.7882C26.9671 32.5432 32.9999 25.6761 32.9999 17.3888Z" fill="white"/>
<g id="Group 157">
<path id="Vector_2" d="M47.7539 17.3268C47.7539 8.0776 55.2519 0.57959 64.5011 0.57959C73.7503 0.57959 81.2483 8.0776 81.2483 17.3268C81.2483 26.576 73.7503 34.074 64.5011 34.074C55.2519 34.074 47.7539 26.576 47.7539 17.3268Z" fill="white"/>
<g id="Group">
<path id="Vector_3" fill-rule="evenodd" clip-rule="evenodd" d="M64.501 8.39502C62.0753 8.39502 61.7708 8.40563 60.8181 8.44896C59.8672 8.4925 59.2182 8.64302 58.6503 8.86394C58.0628 9.09205 57.5645 9.3972 57.068 9.89389C56.5712 10.3903 56.266 10.8887 56.0371 11.4759C55.8157 12.044 55.6649 12.6933 55.6222 13.6438C55.5795 14.5965 55.5684 14.9012 55.5684 17.3269C55.5684 19.7527 55.5792 20.0562 55.6223 21.0089C55.6661 21.9598 55.8166 22.6089 56.0373 23.1768C56.2656 23.7642 56.5707 24.2626 57.0674 24.7591C57.5637 25.2559 58.062 25.5618 58.6491 25.7899C59.2174 26.0108 59.8667 26.1614 60.8174 26.2049C61.7701 26.2482 62.0744 26.2589 64.4999 26.2589C66.9259 26.2589 67.2294 26.2482 68.1821 26.2049C69.133 26.1614 69.7828 26.0108 70.3511 25.7899C70.9384 25.5618 71.4359 25.2559 71.9322 24.7591C72.429 24.2626 72.7342 23.7642 72.9631 23.1769C73.1827 22.6089 73.3335 21.9596 73.3781 21.0091C73.4209 20.0564 73.4321 19.7527 73.4321 17.3269C73.4321 14.9012 73.4209 14.5967 73.3781 13.644C73.3335 12.6931 73.1827 12.044 72.9631 11.4762C72.7342 10.8887 72.429 10.3903 71.9322 9.89389C71.4354 9.39706 70.9385 9.09184 70.3506 8.86394C69.7811 8.64302 69.1317 8.4925 68.1808 8.44896C67.228 8.40563 66.9248 8.39502 64.4983 8.39502H64.501ZM64.2032 10.0045H64.2034L64.501 10.0046C66.8858 10.0046 67.1685 10.0131 68.1103 10.0559C68.9811 10.0958 69.4538 10.2413 69.7687 10.3635C70.1855 10.5254 70.4827 10.719 70.7951 11.0316C71.1077 11.3442 71.3012 11.642 71.4635 12.0588C71.5857 12.3732 71.7314 12.8459 71.7711 13.7167C71.8139 14.6583 71.8232 14.9412 71.8232 17.3249C71.8232 19.7086 71.8139 19.9914 71.7711 20.933C71.7312 21.8039 71.5857 22.2765 71.4635 22.591C71.3016 23.0078 71.1077 23.3046 70.7951 23.617C70.4824 23.9297 70.1857 24.1232 69.7687 24.2851C69.4542 24.4079 68.9811 24.5531 68.1103 24.5929C67.1687 24.6357 66.8858 24.645 64.501 24.645C62.116 24.645 61.8334 24.6357 60.8918 24.5929C60.021 24.5527 59.5483 24.4072 59.2333 24.2849C58.8164 24.123 58.5187 23.9295 58.206 23.6168C57.8934 23.3042 57.6999 23.0072 57.5377 22.5902C57.4154 22.2758 57.2697 21.8031 57.2301 20.9323C57.1873 19.9907 57.1787 19.7078 57.1787 17.3227C57.1787 14.9375 57.1873 14.6561 57.2301 13.7145C57.2699 12.8436 57.4154 12.371 57.5377 12.0562C57.6996 11.6393 57.8934 11.3416 58.206 11.029C58.5187 10.7164 58.8164 10.5228 59.2333 10.3606C59.5481 10.2378 60.021 10.0926 60.8918 10.0526C61.7158 10.0154 62.0351 10.0042 63.6998 10.0023V10.0046C63.8553 10.0044 64.0226 10.0044 64.2032 10.0045ZM68.197 12.5591C68.197 11.9672 68.6771 11.4877 69.2688 11.4877V11.4873C69.8606 11.4873 70.3407 11.9674 70.3407 12.5591C70.3407 13.1509 69.8606 13.631 69.2688 13.631C68.6771 13.631 68.197 13.1509 68.197 12.5591ZM64.5008 12.74C61.9678 12.7401 59.9141 14.7938 59.9141 17.3269C59.9141 19.8601 61.9679 21.9129 64.501 21.9129C67.0342 21.9129 69.0872 19.8601 69.0872 17.3269C69.0872 14.7938 67.034 12.74 64.5008 12.74ZM67.4783 17.3269C67.4783 15.6825 66.1453 14.3496 64.501 14.3496C62.8566 14.3496 61.5237 15.6825 61.5237 17.3269C61.5237 18.9712 62.8566 20.3042 64.501 20.3042C66.1453 20.3042 67.4783 18.9712 67.4783 17.3269Z" fill="#657674"/>
</g>
</g>
<path id="Vector_4" d="M95 17.2883C95 8.17564 102.387 0.78833 111.5 0.78833C120.613 0.78833 128 8.17564 128 17.2883C128 26.4009 120.613 33.7882 111.5 33.7882C102.387 33.7882 95 26.4009 95 17.2883Z" fill="white"/>
<path id="Vector_5" d="M111.006 14.1999L111.04 14.7708L110.463 14.7009C108.363 14.4329 106.528 13.5241 104.97 11.9977L104.208 11.2403L104.012 11.7996C103.596 13.0464 103.862 14.363 104.727 15.2485C105.189 15.7379 105.085 15.8079 104.289 15.5166C104.012 15.4233 103.769 15.3534 103.746 15.3883C103.666 15.47 103.943 16.5302 104.162 16.9497C104.462 17.5323 105.074 18.1032 105.743 18.4411L106.308 18.7091L105.639 18.7208C104.993 18.7208 104.97 18.7324 105.039 18.9771C105.27 19.7344 106.181 20.5385 107.197 20.888L107.913 21.1327L107.289 21.5055C106.366 22.0415 105.281 22.3445 104.196 22.3678C103.677 22.3794 103.25 22.426 103.25 22.461C103.25 22.5775 104.658 23.23 105.477 23.4863C107.936 24.2437 110.856 23.9174 113.049 22.6241C114.607 21.7036 116.165 19.8743 116.892 18.1032C117.284 17.1594 117.677 15.435 117.677 14.6077C117.677 14.0717 117.711 14.0018 118.358 13.361C118.739 12.9881 119.096 12.5803 119.166 12.4638C119.281 12.2424 119.269 12.2424 118.681 12.4405C117.7 12.79 117.561 12.7434 118.046 12.2191C118.404 11.8462 118.831 11.1704 118.831 10.9723C118.831 10.9374 118.658 10.9956 118.462 11.1005C118.254 11.217 117.792 11.3918 117.446 11.4967L116.823 11.6948L116.257 11.3102C115.946 11.1005 115.507 10.8675 115.276 10.7976C114.687 10.6344 113.787 10.6577 113.256 10.8442C111.814 11.3685 110.902 12.7201 111.006 14.1999Z" fill="#657674"/>
</g>
</svg>
